<?xml version="1.0" encoding="UTF-8" standalone="no"?>
<!-- Generated by IcoMoon.io -->

<svg
   xmlns:dc="http://purl.org/dc/elements/1.1/"
   xmlns:cc="http://creativecommons.org/ns#"
   xmlns:rdf="http://www.w3.org/1999/02/22-rdf-syntax-ns#"
   xmlns:svg="http://www.w3.org/2000/svg"
   xmlns="http://www.w3.org/2000/svg"
   xmlns:sodipodi="http://sodipodi.sourceforge.net/DTD/sodipodi-0.dtd"
   xmlns:inkscape="http://www.inkscape.org/namespaces/inkscape"
   version="1.1"
   width="32"
   height="32"
   viewBox="0 0 32 32"
   id="svg3433"
   inkscape:version="0.91 r13725"
   sodipodi:docname="stats-dots.svg">
  <metadata
     id="metadata3441">
    <rdf:RDF>
      <cc:Work
         rdf:about="">
        <dc:format>image/svg+xml</dc:format>
        <dc:type
           rdf:resource="http://purl.org/dc/dcmitype/StillImage" />
      </cc:Work>
    </rdf:RDF>
  </metadata>
  <defs
     id="defs3439" />
  <sodipodi:namedview
     pagecolor="#ffffff"
     bordercolor="#666666"
     borderopacity="1"
     objecttolerance="10"
     gridtolerance="10"
     guidetolerance="10"
     inkscape:pageopacity="0"
     inkscape:pageshadow="2"
     inkscape:window-width="1280"
     inkscape:window-height="946"
     id="namedview3437"
     showgrid="false"
     inkscape:zoom="7.375"
     inkscape:cx="16"
     inkscape:cy="16"
     inkscape:window-x="0"
     inkscape:window-y="25"
     inkscape:window-maximized="1"
     inkscape:current-layer="svg3433" />
  <path
     d="M4 28h28v4h-32v-32h4zM9 26c-1.657 0-3-1.343-3-3s1.343-3 3-3c0.088 0 0.176 0.005 0.262 0.012l3.225-5.375c-0.307-0.471-0.487-1.033-0.487-1.638 0-1.657 1.343-3 3-3s3 1.343 3 3c0 0.604-0.179 1.167-0.487 1.638l3.225 5.375c0.086-0.007 0.174-0.012 0.262-0.012 0.067 0 0.133 0.003 0.198 0.007l5.324-9.316c-0.329-0.482-0.522-1.064-0.522-1.691 0-1.657 1.343-3 3-3s3 1.343 3 3c0 1.657-1.343 3-3 3-0.067 0-0.133-0.003-0.198-0.007l-5.324 9.316c0.329 0.481 0.522 1.064 0.522 1.691 0 1.657-1.343 3-3 3s-3-1.343-3-3c0-0.604 0.179-1.167 0.487-1.638l-3.225-5.375c-0.086 0.007-0.174 0.012-0.262 0.012s-0.176-0.005-0.262-0.012l-3.225 5.375c0.307 0.471 0.487 1.033 0.487 1.637 0 1.657-1.343 3-3 3z"
     id="path3435"
     style="fill:#999999;fill-opacity:1" />
</svg>
