<?xml version="1.0" encoding="utf-8"?>
<!-- Generated by IcoMoon.io -->
<!DOCTYPE svg PUBLIC "-//W3C//DTD SVG 1.1//EN" "http://www.w3.org/Graphics/SVG/1.1/DTD/svg11.dtd">
<svg version="1.1" xmlns="http://www.w3.org/2000/svg" xmlns:xlink="http://www.w3.org/1999/xlink" width="31" height="32" viewBox="0 0 31 32">
<path d="M18.875 13.366v-6.835l-3.391-3.417-3.391 3.417v2.278h-6.782v15.947h20.346v-11.391h-6.782zM7.572 20.2h2.261v2.278h-2.261v-2.278zM7.572 15.644h2.261v2.278h-2.261v-2.278zM7.572 11.088h2.261v2.278h-2.261v-2.278zM14.354 20.2h2.261v2.278h-2.261v-2.278zM14.354 15.644h2.261v2.278h-2.261v-2.278zM14.354 11.088h2.261v2.278h-2.261v-2.278zM14.354 6.531h2.261v2.278h-2.261v-2.278zM21.135 20.2h2.261v2.278h-2.261v-2.278zM21.135 15.644h2.261v2.278h-2.261v-2.278z"></path>
<path d="M15.484 0.377c-8.524 0.001-15.433 6.995-15.433 15.622 0 0 0 0.001 0 0.001s0 0 0 0.001c0 8.627 6.91 15.622 15.433 15.622 8.524-0.001 15.434-6.995 15.434-15.622 0-0 0-0.001 0-0.001s0-0.001 0-0.001c0-8.627-6.91-15.622-15.433-15.622zM15.484 2.722c3.087 0.006 5.922 1.090 8.159 2.9l-18.536 18.49c-1.708-2.217-2.739-5.042-2.742-8.11 0-7.334 5.874-13.279 13.119-13.279zM25.861 7.889c1.707 2.217 2.739 5.042 2.742 8.11-0 7.334-5.874 13.279-13.119 13.279-3.087-0.006-5.922-1.090-8.159-2.9l18.536-18.49z"></path>
</svg>
